<svg xmlns="http://www.w3.org/2000/svg" viewBox="0 0 938 132">
  <g fill="#E6E7E8" fillRule="nonzero">
    <path d="M61.67 91.12a7.09 7.09 0 004-2.91 8.85 8.85 0 001.43-5L67.49 50a5.39 5.39 0 00-.76-2.81 9.07 9.07 0 00-2-2.29 9.46 9.46 0 00-2.62-1.57 7.08 7.08 0 00-2.67-.58h-42.1l.57 33-16.59.1-.39-49.39h62.46l2.82.33a30.67 30.67 0 014.33.91 25.57 25.57 0 014.86 2 16 16 0 014.49 3.53 16.92 16.92 0 013.19 5.53 21 21 0 011 8l.28 43.29c-.12 5.333-1.563 9.387-4.33 12.16-2.77 2.76-6.72 4.66-11.88 5.67l-51.29-.09a21.72 21.72 0 01-7.2-1 10.6 10.6 0 01-4.58-3 12.65 12.65 0 01-2.62-5 42.85 42.85 0 01-1.33-6.86l58.25-.48a3.88 3.88 0 00.87-.09 6.25 6.25 0 001.42-.24zM177.62 75.76H138l40.61 32.71h-25.68l-41-32.71v32.71a18.44 18.44 0 01-4.24-1.57 27.2 27.2 0 01-4.34-2.81 20.72 20.72 0 01-3.19-3.39 22.5 22.5 0 01-2.48-4.1 26.44 26.44 0 01-1.57-4.24 14.31 14.31 0 01-.58-3.82V26h61.7a16.69 16.69 0 017 1.67 26.12 26.12 0 016.62 4.39 23.12 23.12 0 014.92 6.29 15.66 15.66 0 011.9 7.39l-.05 30.02zm-16.4-16.59v-9.25a6 6 0 00-.76-2.9 7.92 7.92 0 00-2-2.34 11.26 11.26 0 00-2.58-1.53 6.89 6.89 0 00-2.62-.57h-41.34v16.59h49.3zM273.16 108.66h-67.32a4.73 4.73 0 01-.76-.24c-.44-.16-.91-.33-1.38-.52-.47-.19-.93-.38-1.34-.57-.41-.19-.62-.32-.62-.38a17 17 0 01-4.86-3.44 24.76 24.76 0 01-3.72-4.72 23.72 23.72 0 01-2.34-5.1 16.25 16.25 0 01-.8-4.77V26.47h62.45a17.35 17.35 0 017.44 1.76 24.29 24.29 0 016.62 4.63 24.83 24.83 0 014.77 6.53 16.39 16.39 0 011.86 7.48v61.79zm-16.59-16.4V50.4c0-1.01-.28-2-.81-2.86a9.36 9.36 0 00-2-2.33 10 10 0 00-2.57-1.58 6.9 6.9 0 00-2.63-.57h-42.15v42.05a5 5 0 00.82 2.72 9.64 9.64 0 002 2.29 9.91 9.91 0 002.57 1.57 6.5 6.5 0 002.43.57h42.34zM368.6 75.67H302v32.13a15.48 15.48 0 01-4.1-1.52 32.22 32.22 0 01-4.48-2.87 15.54 15.54 0 01-3.25-3.23 27.71 27.71 0 01-2.47-4A22.67 22.67 0 01286 92a14.66 14.66 0 01-.58-3.81V26.37H348c2.62.02 5.2.642 7.54 1.82a26.21 26.21 0 016.62 4.57 23.77 23.77 0 014.67 6.11 13.77 13.77 0 011.77 6.48v30.32zm-16.49-16.4V50a5.66 5.66 0 00-.77-2.86 8 8 0 00-2-2.29 10.61 10.61 0 00-2.57-1.52 6.73 6.73 0 00-2.62-.58h-42.01v16.5l49.97.02zM464.14 109c.06 0 0-.1-.19-.29v.29h-16.4V76.2h-50.73v32a2.15 2.15 0 00-.66-.09c-.13 0-.21 0-.24-.1s-.11-.09-.24-.09h-.24c.09 0 .08-.05 0-.05s-.15 0 0 .05.08 0-.05 0-.17 0-.14-.1a.16.16 0 00-.05-.19l-.29-.14a.63.63 0 00-.28-.05h-.1a.09.09 0 00.1.1.41.41 0 01-.19 0c-.07 0 0-.08.09-.14h-.38a.23.23 0 01-.15-.05h.15a.59.59 0 00-.38-.09h-.19a.84.84 0 01-.34-.19 2.47 2.47 0 00-.42-.29h-.1v-.1c-.07 0-.14 0-.24-.14a.45.45 0 00-.33-.14c-.067 0-.067.03 0 .09a.7.7 0 01-.29-.24.32.32 0 00-.28-.14c-.07 0-.07 0 0 .1-.14-.13-.23-.2-.29-.2a1.31 1.31 0 00-.47-.28 1.33 1.33 0 01-.49-.29 1.07 1.07 0 01-.33-.28.39.39 0 00-.33-.19c-.067 0-.067.03 0 .09l-.38-.48a1.18 1.18 0 01-.43-.23c-.22-.16-.33-.31-.33-.43a.3.3 0 01-.2-.1c0-.06-.03-.06-.09 0l.29.29a1.59 1.59 0 01-.29-.34.33.33 0 00-.29-.14h-.09l-2.38-2.39a1.72 1.72 0 01-.34-.48 1.28 1.28 0 00-.43-.47c.13-.13.06-.26-.19-.39v.1l.1.09-.29-.28.09.09v-.09l-.67-1c-.12-.39-.24-.58-.38-.58s-.06-.1 0-.1a.3.3 0 00-.14-.28.31.31 0 01-.14-.29 1.73 1.73 0 01-.24-.47 1.52 1.52 0 00-.24-.48.53.53 0 01-.28-.43 1.46 1.46 0 00-.2-.62v.09a.2.2 0 000-.14.16.16 0 01-.05-.14.28.28 0 00.09.19 2 2 0 00-.14-.62 1.61 1.61 0 00-.33-.62.08.08 0 00-.09.09c.06-.06 0-.22-.2-.48v-.47l-.09.09v-.28c-.06 0-.09 0-.05-.1a.16.16 0 000-.19c-.07 0-.11 0-.11.1v-.48a.8.8 0 00-.09-.48v-.29c-.06 0-.09 0-.09.1 0-.13 0-.19.05-.19s0-.07-.05-.19a.28.28 0 00-.1.19.72.72 0 01.05-.29.31.31 0 00-.05-.28c-.06 0-.1.09-.1.28 0-.112.016-.223.05-.33a.9.9 0 000-.34 12.36 12.36 0 01-.38-3.15.74.74 0 00-.1-.48 2.09 2.09 0 00-.09.87V26.66H442c0 .06 0 .09.1.09h1.53c.21.084.435.118.66.1a.48.48 0 00.34 0 .67.67 0 01.42.05h.48l-.1.09h.48c.13.13.22.14.28 0 .06-.14.1 0 .1.14a.81.81 0 01.67.1h.1a.6.6 0 01.38.09h-.29l.48.2h.19c.06-.07 0-.1-.1-.1.32 0 .51 0 .58.1a.21.21 0 01-.15-.05s-.11 0-.24.05c.249.091.507.155.77.19h.18c.07.12.17.12.29 0l.19.19h.1c.12 0 .14 0 0 0H449.59h.09c.09 0 .16 0 .1.14s0 .14.1.14h.09.09a.31.31 0 01.29.14.79.79 0 00.29.24c.193 0 .386.03.57.09l-.1.1a.28.28 0 00.2.09l.09.1h.19c-.13-.13-.22-.19-.28-.19.12.06.18.12.18.19s.06.09.2.09a.2.2 0 01.14 0 .38.38 0 00.24.05c0 .06.06.09.19.09a.5.5 0 00.43.24c.22.041.43.123.62.24.06.07.08.11 0 .14-.08.03 0 .12.14.24a.12.12 0 00.2 0l-.2-.19a.65.65 0 01.29.24.71.71 0 00.29.24v-.1c0 .13.06.2.19.2s.17 0 .14-.05a.16.16 0 00-.14-.05c.06 0 .08 0 .05.1s0 .09.14.09.1.06.1.19h.28a.49.49 0 01.15.24c0 .1.11.14.24.14a.37.37 0 01.23.05s0 .05-.05.05l.2.19v-.19c0-.07.06.09.18.47.2 0 .23-.06.1-.19.136.197.313.36.52.48.19.106.369.233.53.38l1.43 1.43-.09.1c.234.117.444.276.62.47.15.2.36.45.62.77l-.2-.19c-.12.19 0 .28.29.28l.19.19c-.06.07-.06.1 0 .1l.1.19c-.07.06 0 .09.09.09l.2.1-.11.09.29.29c.13.13.13.23 0 .29.13 0 .2.06.2.19.18 0 .28.16.28.48.184.202.345.423.48.66l-.2-.19c.058.258.194.492.39.67.06-.06.06-.1 0-.1.102.147.18.309.23.48.055.171.136.333.24.48.07.06 0 .13 0 .19s-.08.09 0 .09.15 0 0 .05-.08.05.05.05h.09c-.06 0-.06 0 0 .09a.69.69 0 01.25.67c-.06.06-.06.09 0 .09.05 0 .08 0 .08-.09v.19c0 .1 0-.1-.08-.1h-.08v.1a.85.85 0 00.12.43c.08.138.15.282.21.43h.08a.48.48 0 00-.08-.29c.107.28.197.568.27.86.06.26.13.54.2.86.06 0 .09 0 .09-.1-.06.19-.06.32 0 .38v.2h.09a.16.16 0 01-.05.14s0 .11.05.24a.3.3 0 00.1-.19.66.66 0 010 .28v.29a.3.3 0 00.1-.19c-.07.06 0 .35.09.86a.58.58 0 00.1-.38.88.88 0 01-.06.33 1.11 1.11 0 000 .33c.12.613.183 1.236.19 1.86a8.91 8.91 0 00.19 1.77 1.72 1.72 0 01.05-.43.69.69 0 00-.05-.43l.2 61.23zm-83.81-20h-.19v-.76h.19V89zm.1.77h-.2V89h.2v.77zm0 .47h-.1v-.38h.1v.38zm.09.48h-.09v-.38h.09v.38zm.09.38h-.09v-.28h.09v.28zm1.15 3.91h-.1l-.09-.29h.09l.1.29zm13.16 12.68l-.1.1-.09-.1v-.09l.19.09zm52.73-56.82c-.127-.067-.177-.147-.15-.24.033-.11.05-.225.05-.34-.13-.63-.29-1.27-.47-1.9a.32.32 0 00-.1-.2.24.24 0 01-.1-.19.51.51 0 00-.18-.23.25.25 0 01-.11-.24 7.68 7.68 0 00-1.23-1.72 8 8 0 00-1.62-1.43l-1.15-.57a5 5 0 00-.85-.38h-.1c.07 0 0 .05-.1.05s-.21 0-.24-.09-.11-.1-.23-.1c-.12 0-.15 0-.05.05.1.05.08.05 0 .05s-.14 0-.05-.05c.09-.05.08-.05 0-.05h-.19c-.13 0-.18 0-.15-.05s0-.05-.14-.05-.18 0-.15.05 0 .05-.13.05-.18 0-.15-.1 0-.09-.14-.09h-43v16.59h50.54v-8.48c.06-.07.1-.09.14-.05.04.04 0 0 0-.14l.05-.15zm3.52-22l-.28-.1v.1l.28.09v-.09zm6.2 4.19l-.38-.47-.09.09.38.38h.09zm5.53 8h-.1l-.09-.29h.09l.1.29zm1 3.34h-.1v-.09h.1v.09zm.19.76H464v-.19h.1l-.01.19zm0 .38H464v-.28h.1l-.01.28zm.09.58h-.09v-.39h.09v.39zm.1.66h-.19v-.57h.19v.57zm0 1h-.1v-.77h.1v.77zM557.87 44.16c.06.6.09 1.19.09 1.76v5h-16.4a7.25 7.25 0 00-.57-3.34 7.56 7.56 0 00-1.81-2.57 8.82 8.82 0 00-6-2.29h-41.49v41.86a6.82 6.82 0 00.67 2.86 8.16 8.16 0 001.76 2.48 9.62 9.62 0 002.48 1.71 6.4 6.4 0 002.81.67h42.05l-.28-16.3-24.22.09.1-16.11 40.81-.1.09 48.82h-63.69a6.41 6.41 0 01-1.43-.24c-.64-.16-1.29-.33-2-.52s-1.28-.38-1.82-.57a5 5 0 01-1.09-.48 16.94 16.94 0 01-4.92-3.15 27.11 27.11 0 01-4.09-4.57 24.09 24.09 0 01-2.82-5.15 13.61 13.61 0 01-1-5V26.18h62.17a17 17 0 016.3 1.29 25.23 25.23 0 0111 8.72 19.08 19.08 0 013 6.2c.13.61.23 1.16.3 1.77zM653.4 109c.06 0 0-.1-.18-.29v.29h-16.41V76.2h-50.72v32a2.22 2.22 0 00-.67-.09c-.12 0-.21 0-.24-.1s-.11-.09-.23-.09h-.2c-.12 0-.14 0 0 0s.07-.05-.05-.05c-.12 0-.15 0 0 .05s.08 0-.05 0-.17 0-.14-.1a.15.15 0 000-.19l-.28-.14a.72.72 0 00-.29-.05h-.09c0 .06 0 .1.09.1a.45.45 0 01-.19 0c-.07 0 0-.08.1-.14h-.38a.21.21 0 01-.15-.05h.15a.6.6 0 00-.38-.09h-.2a.77.77 0 01-.33-.19 3 3 0 00-.43-.29h-.1v-.1a.39.39 0 01-.23-.14.45.45 0 00-.34-.14c-.073 0-.073.03 0 .09a.61.61 0 01-.28-.24.36.36 0 00-.29-.14c-.06 0-.06 0 0 .1-.13-.13-.23-.2-.29-.2a1.16 1.16 0 00-.47-.28 1.21 1.21 0 01-.48-.29 1 1 0 01-.34-.28.39.39 0 00-.33-.19c-.06 0-.06.03 0 .09l-.38-.48a1.26 1.26 0 01-.43-.23c-.22-.16-.33-.31-.33-.43a.28.28 0 01-.19-.1c0-.06 0-.06-.1 0l.29.29a2 2 0 01-.29-.34.32.32 0 00-.28-.14H577l-2.38-2.39a1.7 1.7 0 01-.33-.48 1.23 1.23 0 00-.44-.47c.13-.13.06-.26-.18-.39v.1l.09.09-.29-.28.09.09v-.09l-.66-1c-.13-.39-.25-.58-.38-.58s-.06-.1 0-.1a.32.32 0 00-.14-.28.32.32 0 01-.15-.29A1.66 1.66 0 01572 97a2.12 2.12 0 00-.24-.48.52.52 0 01-.29-.43 1.42 1.42 0 00-.19-.62v.09a.2.2 0 000-.14.2.2 0 010-.14.26.26 0 00.1.19 2.38 2.38 0 00-.14-.62 1.61 1.61 0 00-.34-.62.08.08 0 00-.09.09c.06-.06 0-.22-.19-.48v-.47l-.1.09v-.28c-.06 0-.08 0 0-.1a.16.16 0 000-.19c-.07 0-.1 0-.1.1v-.48a.8.8 0 00-.09-.48v-.29a.09.09 0 00-.1.1v-.19-.19a.28.28 0 00-.1.19.57.57 0 01.06-.29.32.32 0 00-.06-.28c-.06 0-.09.09-.09.28a1.11 1.11 0 010-.33.9.9 0 00.05-.34 12.36 12.36 0 01-.38-3.15.83.83 0 00-.09-.48 2 2 0 00-.1.87V26.66h61.89a.08.08 0 00.09.09h1.53c.213.085.442.12.67.1a.45.45 0 00.33 0 .71.71 0 01.43.05h.47l-.09.09h.47c.13.13.23.14.29 0 .06-.14.1 0 .1.14a.82.82 0 01.67.1h.09a.59.59 0 01.38.09h-.29l.48.2h.19c.06-.07 0-.1-.09-.1.31 0 .5 0 .57.1a.21.21 0 01-.15-.05s-.11 0-.24.05c.249.091.507.155.77.19h.19c.06.12.16.12.28 0l.2.19h.09c.13 0 .15 0 0 0s-.08 0 0 0h.1.1c.1 0 .15 0 .09.14s0 .14.1.14h.1.09a.33.33 0 01.29.14.75.75 0 00.28.24 2 2 0 01.58.09l-.1.1a.28.28 0 00.19.09l.09.1h.2c-.14-.13-.23-.19-.29-.19.12.06.19.12.19.19s.06.09.19.09a.2.2 0 01.14 0 .4.4 0 00.24.05c0 .06.06.09.19.09a.53.53 0 00.43.24c.22.038.432.12.62.24.06.07.08.11 0 .14-.08.03 0 .12.14.24s.13.07.19 0l-.19-.19a.78.78 0 01.29.24.74.74 0 00.28.24v-.1a.18.18 0 00.2.2c.12 0 .17 0 .14-.05a.17.17 0 00-.14-.05c.06 0 .07 0 0 .1s0 .09.14.09.1.06.1.19h.28a.49.49 0 01.15.24c0 .1.11.14.24.14a.37.37 0 01.23.05v.05l.19.19v-.19c0-.07.06.09.19.47.19 0 .22-.06.1-.19.13.201.31.366.52.48.188.11.365.238.53.38l1.42 1.43-.09.1a2 2 0 01.62.47l.62.77-.19-.19c-.13.19 0 .28.28.28l.19.19c-.06.07-.06.1 0 .1l.1.19c-.07.06 0 .09.09.09l.2.1-.1.09.29.29c.13.13.13.23 0 .29a.17.17 0 01.19.19c.19 0 .29.16.29.48.182.201.34.423.47.66l-.19-.19c.057.256.19.49.38.67.07-.06.07-.1 0-.1.108.144.19.307.24.48.05.173.132.336.24.48.06.06 0 .13 0 .19s-.08.09 0 .09.14 0 0 .05-.07.05 0 .05h.09c-.06 0-.06 0 0 .09a.67.67 0 01.25.67c-.06.06-.06.09 0 .09 0 0 .08 0 .08-.09v.19c0 .1 0-.1-.08-.1h-.08v.1a1 1 0 00.12.43c.08.138.15.282.21.43h.09a.42.42 0 00-.09-.29c.107.28.197.568.27.86.07.26.14.54.2.86.06 0 .09 0 .09-.1-.06.19-.06.32 0 .38v.2h.09a.2.2 0 010 .14v.24a.27.27 0 00.11-.19.63.63 0 01-.05.28c0 .07 0 .16.05.29a.28.28 0 00.09-.19c-.06.06 0 .35.09.86a.58.58 0 00.1-.38c.016.11.016.22 0 .33a1.09 1.09 0 00-.05.33c.123.613.19 1.235.2 1.86a9.66 9.66 0 00.18 1.77 1.77 1.77 0 01.06-.43.69.69 0 00-.06-.43l.15 61.23zm-83.81-20h-.19v-.76h.19V89zm.1.77h-.19V89h.19v.77zm0 .47h-.1v-.38h.1v.38zm.1.48h-.1v-.38h.1v.38zm.09.38h-.09v-.28h.09v.28zm1.15 3.91h-.1l-.1-.29h.1l.1.29zm13.15 12.68l-.09.1-.1-.1v-.09l.19.09zm52.73-56.82c-.13-.07-.18-.15-.14-.24a1.18 1.18 0 000-.34c-.12-.63-.29-1.27-.47-1.9a.3.3 0 00-.09-.2.26.26 0 01-.11-.19.51.51 0 00-.18-.23.25.25 0 01-.1-.24 8.11 8.11 0 00-1.24-1.72A7.75 7.75 0 00633 44.3l-1.15-.57a5 5 0 00-.85-.38h-.1c.06 0 0 .05-.09.05s-.21 0-.24-.09-.11-.1-.24-.1-.14 0 0 .05.07.05-.06.05-.14 0 0-.05.07-.05-.05-.05H630c-.13 0-.18 0-.14-.05.04-.05 0-.05-.14-.05s-.18 0-.15.05 0 .05-.14.05-.18 0-.15-.1 0-.09-.14-.09h-42.96v16.59h50.54v-8.48c.06-.07.11-.09.14-.05.03.04 0 0 0-.14l.05-.07zm3.53-22l-.29-.1v.1l.29.09v-.09zm6.2 4.19l-.38-.47-.1.09.38.38h.1zm5.53 8h-.1l-.1-.29h.1l.1.29zm1 3.34H653v-.09h.1l.07.09zm.19.76h-.09v-.19h.09v.19zm0 .38h-.09v-.28h.09v.28zm.09.58h-.09v-.39h.09v.39zm.1.66h-.19v-.57h.19v.57zm0 1h-.1v-.77h.1v.77zM747 16.93a1.49 1.49 0 01-.08-.55c-.16-.48-.24-1-.4-1.59-.16-.59-.24-1-.4-1.35a14.61 14.61 0 00-2.3-4.77 35.66 35.66 0 00-3.9-4.69 25.36 25.36 0 00-4.13-3.25h-5l-.16 16.84-.48 63.25c-3.5-4.93-6.83-9.85-10.09-14.62s-6.52-9.3-9.69-13.67c-3.17-4.37-6.44-8.58-9.7-12.39a114.41 114.41 0 00-9.93-10.49c-.16-.08-.48-.32-1.11-.64-.63-.32-1.35-.71-2.15-1.19a27 27 0 00-2.7-1 7.36 7.36 0 00-2.3-.48l-18.6.24.24 87.88v.32a19.73 19.73 0 00.56 3.89 26.52 26.52 0 004 8.58 14.75 14.75 0 003.26 3.42l.87.63h7.55l.08-16.84.32-69.29 47.59 63.65 2.39-.24H747l.08-91a2.272 2.272 0 00-.08-.65zM819.7 91.12a7.07 7.07 0 004-2.91 8.77 8.77 0 001.43-5l.38-33.18a5.39 5.39 0 00-.76-2.81 8.87 8.87 0 00-2-2.29 9.46 9.46 0 00-2.62-1.57 7 7 0 00-2.67-.58h-42.1l.57 33-16.59.1-.34-49.41h62.45l2.82.33a30.78 30.78 0 014.34.91c1.68.5 3.306 1.17 4.85 2a15.81 15.81 0 014.49 3.53 16.94 16.94 0 013.2 5.53 21.19 21.19 0 011 8l.28 43.29c-.133 5.333-1.58 9.387-4.34 12.16-2.76 2.76-6.72 4.66-11.87 5.67l-51.29-.09a21.74 21.74 0 01-7.21-1 10.63 10.63 0 01-4.57-3 12.8 12.8 0 01-2.63-5 44 44 0 01-1.33-6.86l58.26-.48c.29.003.578-.027.86-.09a6.4 6.4 0 001.39-.25zM937 109c.06 0 0-.1-.19-.29v.29h-16.4V76.2h-50.76v32a2.15 2.15 0 00-.66-.09c-.13 0-.21 0-.24-.1s-.11-.09-.24-.09h-.24c.09 0 .08-.05 0-.05s-.15 0-.05.05c.1.05.08 0-.06 0s-.17 0-.14-.1a.15.15 0 000-.19l-.29-.14a.65.65 0 00-.29-.05h-.09c0 .06 0 .1.09.1a.41.41 0 01-.18 0c-.07 0 0-.08.09-.14h-.38a.21.21 0 01-.15-.05h.15a.59.59 0 00-.38-.09h-.19a.79.79 0 01-.4-.26 2.47 2.47 0 00-.42-.29h-.1v-.1c-.07 0-.14 0-.24-.14a.45.45 0 00-.33-.14c-.067 0-.067.03 0 .09a.64.64 0 01-.29-.24.33.33 0 00-.29-.14c-.06 0-.06 0 0 .1-.13-.13-.22-.2-.28-.2a1.27 1.27 0 00-.48-.28 1.29 1.29 0 01-.48-.29 1.07 1.07 0 01-.33-.28.39.39 0 00-.33-.19c-.067 0-.067.03 0 .09l-.38-.48a1.18 1.18 0 01-.43-.23c-.23-.16-.33-.31-.33-.43a.3.3 0 01-.2-.1c0-.06-.03-.06-.09 0l.29.29a1.59 1.59 0 01-.29-.34.34.34 0 00-.29-.14h-.09l-2.38-2.39a1.54 1.54 0 01-.34-.48 1.28 1.28 0 00-.43-.47c.13-.13.06-.26-.19-.39v.1l.09.09-.28-.28.09.09v-.09l-.67-1c-.12-.39-.25-.58-.38-.58s-.06-.1 0-.1a.3.3 0 00-.14-.28.31.31 0 01-.14-.29 1.49 1.49 0 01-.24-.47 1.77 1.77 0 00-.24-.48.53.53 0 01-.28-.43 1.46 1.46 0 00-.2-.62v.09a.16.16 0 000-.14.2.2 0 010-.14.28.28 0 00.09.19 2.38 2.38 0 00-.14-.62 1.61 1.61 0 00-.33-.62c-.06 0-.1 0-.1.09s0-.22-.19-.48v-.47l-.09.09v-.28c-.06 0-.09 0 0-.1a.15.15 0 00-.05-.19c-.07 0-.1 0-.1.1v-.48a.8.8 0 00-.09-.48v-.29c-.06 0-.09 0-.09.1v-.19-.19a.28.28 0 00-.1.19.72.72 0 01.05-.29.31.31 0 00-.05-.28c-.07 0-.1.09-.1.28a1.09 1.09 0 010-.33.9.9 0 000-.34 12.36 12.36 0 01-.38-3.15.74.74 0 00-.1-.48 2.09 2.09 0 00-.09.87V26.66h61.88c0 .06 0 .09.1.09h1.52c.213.083.442.117.67.1a.47.47 0 00.34 0 .67.67 0 01.42.05h.48l-.1.09h.48c.13.13.22.14.28 0 .06-.14.1 0 .1.14a.81.81 0 01.67.1h.09a.57.57 0 01.38.09H920l.48.2h.18c.07-.07 0-.1-.09-.1.32 0 .51 0 .58.1a.21.21 0 01-.15-.05s-.11 0-.24.05c.249.093.507.156.77.19h.18c.06.12.16.12.29 0l.19.19h.1c.12 0 .14 0 0 0s-.07 0 0 0h.1.09c.09 0 .16 0 .1.14s0 .14.1.14h.09.09a.31.31 0 01.29.14.79.79 0 00.29.24c.193.001.386.032.57.09l-.1.1a.28.28 0 00.2.09l.09.1h.19c-.13-.13-.22-.19-.28-.19.12.06.18.12.18.19s.06.09.2.09a.17.17 0 01.13 0 .44.44 0 00.25.05c0 .06.06.09.19.09a.5.5 0 00.43.24c.22.041.43.123.62.24.06.07.07.11 0 .14-.07.03 0 .12.14.24a.12.12 0 00.2 0l-.2-.19a.65.65 0 01.29.24.71.71 0 00.29.24v-.1c0 .13.06.2.19.2s.17 0 .14-.05a.16.16 0 00-.14-.05c.06 0 .08 0 .05.1s0 .09.14.09.1.06.1.19h.28a.58.58 0 01.15.24c0 .1.1.14.24.14a.37.37 0 01.23.05s0 .05-.05.05l.2.19v-.19c0-.07.06.09.18.47.2 0 .23-.06.1-.19.136.197.313.36.52.48.19.106.369.233.53.38l1.43 1.43-.09.1c.232.12.442.279.62.47.15.2.36.45.62.77l-.2-.19c-.12.19 0 .28.29.28l.19.19c-.07.07-.07.1 0 .1l.1.19c-.07.06 0 .09.09.09l.19.1-.1.09.29.29c.13.13.13.23 0 .29a.17.17 0 01.19.19c.19 0 .29.16.29.48.185.198.343.42.47.66l-.19-.19c.058.258.194.492.39.67.06-.06.06-.1 0-.1.102.147.18.309.23.48.055.171.136.333.24.48.06.06 0 .13 0 .19s-.08.09 0 .09.15 0 0 .05-.08.05.05.05h.09c-.06 0-.06 0 0 .09a.67.67 0 01.24.67c-.047.06-.047.09 0 .09a.08.08 0 00.09-.09v.19c0 .1 0-.1-.08-.1h-.09v.1c.005.152.05.3.13.43l.21.43h.08a.48.48 0 00-.08-.29c.11.32.21.61.27.86.06.25.13.54.19.86.07 0 .1 0 .1-.1-.07.19-.07.32 0 .38v.2h.09a.2.2 0 010 .14v.24a.3.3 0 00.1-.19.52.52 0 010 .28.33.33 0 000 .29.28.28 0 00.09-.19c-.06.06 0 .35.1.86a.58.58 0 00.1-.38 1.14 1.14 0 01-.06.33 1.11 1.11 0 000 .33c.12.613.183 1.236.19 1.86a8.91 8.91 0 00.19 1.77 1.72 1.72 0 010-.43.69.69 0 000-.43L937 109zm-83.81-20H853v-.76h.19V89zm.1.77h-.2V89h.2v.77zm0 .47h-.1v-.38h.1v.38zm.09.48h-.09v-.38h.09v.38zm.09.38h-.09v-.28h.09v.28zm1.15 3.91h-.1l-.09-.29h.09l.1.29zm13.15 12.68l-.09.1-.09-.1v-.09l.18.09zm52.74-56.82c-.127-.067-.177-.147-.15-.24a1.16 1.16 0 000-.34c-.13-.63-.29-1.27-.48-1.9a.3.3 0 00-.09-.2.24.24 0 01-.1-.19.46.46 0 00-.19-.23.25.25 0 01-.1-.24 8 8 0 00-1.23-1.72 8.29 8.29 0 00-1.62-1.43l-1.15-.57a5.39 5.39 0 00-.85-.38h-.11c.06 0 0 .05-.09.05s-.21 0-.24-.09-.11-.1-.23-.1c-.12 0-.15 0 0 .05s.08.05-.05.05-.14 0 0-.05.08-.05 0-.05h-.18c-.13 0-.18 0-.15-.05s0-.05-.14-.05-.18 0-.15.05 0 .05-.14.05-.17 0-.14-.1 0-.09-.14-.09h-43.04v16.59h50.53v-8.48c.07-.07.11-.09.14-.05.03.04.06 0 .06-.14l.03-.15zm3.52-22l-.29-.1v.1l.29.09v-.09zm6.2 4.19l-.38-.47-.09.09.38.38h.09zm5.53 8h-.1l-.09-.29h.09l.1.29zm1 3.34h-.1v-.09h.1v.09zm.18.76h-.09v-.19h.09v.19zm0 .38h-.09v-.28h.09v.28zm.1.58h-.1v-.39h.1v.39zm.1.66h-.2v-.57h.2v.57zm0 1H937v-.77h.1l.04.77z"/>
    <path d="M937.07 16.93v.64H730.58l.16-16.84h5L918.16.65a1.75 1.75 0 01.55.08c.182.053.37.077.56.07.47.16 1 .24 1.59.4a10 10 0 011.35.4 14.61 14.61 0 014.77 2.3 31.65 31.65 0 014.68 3.9 27.15 27.15 0 013.66 4.69 11 11 0 011.75 4.44zM680.44 114.43l-.08 16.84h-7.55l-653 .08a1.75 1.75 0 01-.55-.08 1.77 1.77 0 00-.56-.07 6.61 6.61 0 01-1.59-.4c-.56-.16-1-.24-1.35-.32A15 15 0 0111 128.1a27.83 27.83 0 01-4.69-3.9 27.11 27.11 0 01-3.65-4.61 11.85 11.85 0 01-1.75-4.45v-.71h679.53zM741.51 121.27h-11.92v6.61h-1.19v-16.61h13.11a.72.72 0 01.76.79v8.41a.73.73 0 01-.76.8zm-.41-8.89h-11.51v7.76h11.51v-7.76zM761.6 127.88l-9.33-7.58v-.81h8.94v-7.11h-12v15.5H748v-16.61h13.61a.72.72 0 01.76.79v7.74a.69.69 0 01-.76.76h-7.35l8.91 7.22v.1h-1.57zM783.3 127.88h-14.2a.72.72 0 01-.76-.78v-15a.73.73 0 01.76-.79h14.2a.73.73 0 01.75.79v15a.72.72 0 01-.75.78zm-.44-15.5h-13.33v14.4h13.33v-14.4zM800.69 127.88H790.1v-16.61h10.59c3.41 0 4.8 1.39 4.8 4.81v7c0 3.41-1.39 4.8-4.8 4.8zM804.3 116c0-2.48-1-3.57-3.48-3.57h-9.53v14.4h9.53c2.45 0 3.48-1.09 3.48-3.57V116zM825.71 127.88h-13.52a.75.75 0 01-.85-.78v-15.83h1.19v15.51h12.76v-15.51h1.2v15.83a.72.72 0 01-.78.78zM846.9 127.88h-13.61a.72.72 0 01-.76-.78v-15a.73.73 0 01.76-.79h13.61a.74.74 0 01.79.79v4.23h-1.2v-3.91h-12.76v14.4h12.76v-4.29h1.2v4.61a.73.73 0 01-.79.74zM860.62 112.38v15.5h-1.19v-15.5h-7.07v-1.11h15.35v1.11zM872.39 127.88v-16.61h1.19v16.61zM894.58 127.88h-14.2a.72.72 0 01-.75-.78v-15a.73.73 0 01.75-.79h14.2a.73.73 0 01.76.79v15a.72.72 0 01-.76.78zm-.43-15.5h-13.33v14.4h13.33v-14.4zM915.3 127.88L902.58 113v14.91h-1.19v-16.64h1.15l12.72 14.92v-14.92h1.19v16.61zM935.82 127.88H923.3a.72.72 0 01-.78-.78v-4.72h1.2v4.4h11.67v-4.85l-12.24-4.57c-.52-.2-.63-.37-.63-.91v-4.39a.73.73 0 01.78-.79h12.52a.74.74 0 01.77.79v4.32h-1.2v-4h-11.67v4L936 121a.81.81 0 01.64.93v5.22a.73.73 0 01-.82.73z"/>
  </g>
</svg>